<svg xmlns="http://www.w3.org/2000/svg" viewBox="0 0 214.76 166.5">
  <defs>
    <style>
      .cls-1 {
        fill: none;
        stroke: #c2beb8;
        stroke-miterlimit: 10;
        stroke-width: 0.25px;
      }
    </style>
  </defs>
  <g id="Layer_2" data-name="Layer 2">
    <g id="Layer_2-2" data-name="Layer 2">
      <g>
        <path class="cls-1" d="M49.43,132.38C30,116.83,39.39,93.07,11.52,67,7.4,63.14,3.87,60.55,1.78,55c-6.27-16.64,6-44.78,25-52.7C57.19-10.33,84.75,36.8,122.47,25.07,143,18.7,143.74,2,162.65.9c21.59-1.24,46.76,19,51.3,41.57C218.2,63.57,201,70.18,203,98.64c1.62,23.46,14,29.27,9.21,43.13-5.44,15.77-27.46,25.6-45.74,24.52-18.48-1.08-20.94-12.61-44-22.61C84.93,127.4,69.49,148.45,49.43,132.38Z"/>
        <path class="cls-1" d="M200.3,98.47c1.58,22.79,13.61,28.43,9,41.9-5.29,15.31-26.68,24.86-44.43,23.81-18-1.05-20.35-12.25-42.74-22-36.47-15.81-51.47,4.64-70.95-11-18.85-15.1-9.75-38.18-36.83-63.52-4-3.73-7.43-6.25-9.46-11.65C-1.24,39.9,10.68,12.57,29.18,4.88,58.67-7.38,85.44,38.4,122.09,27c19.93-6.19,20.65-22.43,39-23.48C182.08,2.33,206.54,22,211,43.9,215.08,64.4,198.4,70.83,200.3,98.47Z"/>
        <path class="cls-1" d="M197.61,98.3c1.53,22.12,13.2,27.6,8.69,40.66-5.13,14.86-25.89,24.13-43.12,23.12-17.43-1-19.75-11.89-41.48-21.32-35.39-15.34-49.95,4.5-68.86-10.65C34.55,115.45,43.38,93,17.1,68.46c-3.88-3.63-7.21-6.07-9.18-11.31C2,41.46,13.58,14.93,31.53,7.47,60.15-4.43,86.14,40,121.7,29c19.35-6,20-21.77,37.87-22.79,20.36-1.17,44.09,18,48.37,39.18C212,65.24,195.76,71.47,197.61,98.3Z"/>
        <path class="cls-1" d="M194.92,98.13c1.48,21.44,12.8,26.76,8.42,39.42-5,14.42-25.1,23.4-41.8,22.42-16.9-1-19.15-11.53-40.22-20.67C87,124.42,72.88,143.66,54.55,129,36.82,114.76,45.37,93,19.89,69.2c-3.76-3.52-7-5.89-8.9-11C5.26,43,16.48,17.29,33.88,10.06c27.76-11.54,53,31.54,87.44,20.83C140.07,25.05,140.75,9.78,158,8.79c19.73-1.13,42.74,17.4,46.89,38C208.82,66.07,193.12,72.12,194.92,98.13Z"/>
        <path class="cls-1" d="M192.23,98c1.43,20.77,12.4,25.92,8.16,38.19-4.82,14-24.32,22.66-40.5,21.71-16.37-1-18.55-11.17-39-20-33.25-14.41-46.92,4.23-64.68-10C39.08,114.07,47.37,93,22.68,69.93c-3.64-3.4-6.76-5.7-8.62-10.62C8.51,44.57,19.38,19.66,36.24,12.65,63.12,1.47,87.52,43.2,120.93,32.82c18.17-5.65,18.83-20.44,35.57-21.4,19.11-1.1,41.41,16.86,45.43,36.8C205.69,66.9,190.49,72.76,192.23,98Z"/>
        <path class="cls-1" d="M189.53,97.79c1.39,20.1,12,25.08,7.9,37-4.66,13.51-23.53,21.93-39.19,21-15.84-.93-17.94-10.8-37.7-19.37-32.17-13.95-45.4,4.09-62.58-9.68-16.62-13.32-8.6-33.69-32.48-56-3.53-3.3-6.55-5.52-8.35-10.28C11.76,46.13,22.27,22,38.59,15.24c26-10.81,49.63,29.57,82,19.52C138.13,29.29,138.76,15,155,14.05c18.5-1.07,40.07,16.31,44,35.61C202.56,67.74,187.85,73.41,189.53,97.79Z"/>
        <path class="cls-1" d="M186.84,97.62c1.34,19.43,11.6,24.24,7.63,35.72-4.5,13-22.74,21.2-37.87,20.31-15.31-.9-17.35-10.45-36.44-18.73-31.1-13.48-43.89,4-60.49-9.36C43.6,112.68,51.35,93,28.27,71.41c-3.41-3.19-6.33-5.34-8.07-9.94-5.19-13.78,5-37.09,20.74-43.64,25.15-10.45,48,28.58,79.22,18.87,17-5.29,17.61-19.13,33.27-20,17.87-1,38.73,15.76,42.49,34.42C199.44,68.57,185.21,74.05,186.84,97.62Z"/>
        <path class="cls-1" d="M184.15,97.45c1.29,18.75,11.19,23.4,7.37,34.48-4.35,12.61-22,20.47-36.57,19.61-14.78-.87-16.75-10.09-35.18-18.08-30-13-42.36,3.81-58.4-9C45.86,112,53.35,93,31.06,72.14,27.77,69.07,25,67,23.27,62.55c-5-13.31,4.8-35.81,20-42.13C67.57,10.33,89.61,48,119.77,38.63c16.41-5.1,17-18.46,32.12-19.33,17.26-1,37.39,15.23,41,33.24C196.31,69.41,182.58,74.7,184.15,97.45Z"/>
        <path class="cls-1" d="M181.46,97.28c1.25,18.08,10.79,22.56,7.1,33.25-4.2,12.15-21.17,19.73-35.26,18.9-14.25-.84-16.14-9.72-33.92-17.43-28.94-12.55-40.84,3.68-56.3-8.71-15-12-7.74-30.31-29.23-50.41-3.17-3-5.89-5-7.51-9.25C21.51,50.8,31,29.11,45.65,23c23.41-9.73,44.65,26.6,73.73,17.56,15.82-4.92,16.4-17.8,31-18.64C167,21,186.4,36.61,189.9,54,193.18,70.24,179.94,75.34,181.46,97.28Z"/>
        <path class="cls-1" d="M178.76,97.11c1.21,17.41,10.4,21.73,6.85,32-4.05,11.7-20.39,19-34,18.2-13.72-.8-15.55-9.36-32.66-16.78-27.87-12.08-39.33,3.54-54.22-8.39C50.38,110.61,57.33,93,36.64,73.62c-3-2.86-5.67-4.79-7.23-8.91C24.76,52.36,33.87,31.47,48,25.6c22.54-9.37,43,25.61,71,16.91,15.23-4.74,15.78-17.14,29.82-17.95,16-.92,34.71,14.13,38.08,30.85C190.05,71.08,177.31,76,178.76,97.11Z"/>
        <path class="cls-1" d="M176.07,96.94c1.16,16.74,10,20.89,6.58,30.78C178.76,139,163.05,146,150,145.21s-14.95-9-31.4-16.13c-26.79-11.62-37.81,3.4-52.12-8.07C52.65,109.92,59.33,93,39.43,74.35c-2.93-2.74-5.45-4.6-7-8.56-4.47-11.88,4.29-32,17.88-37.6,21.66-9,41.33,24.62,68.25,16.25,14.65-4.55,15.18-16.47,28.67-17.25,15.4-.88,33.37,13.59,36.61,29.66C186.92,71.91,174.67,76.63,176.07,96.94Z"/>
        <path class="cls-1" d="M173.38,96.77c1.11,16.07,9.59,20,6.31,29.54-3.73,10.8-18.81,17.53-31.33,16.8s-14.34-8.64-30.13-15.49c-25.72-11.15-36.3,3.27-50-7.74-13.28-10.65-6.87-26.93-26-44.79-2.82-2.64-5.24-4.41-6.68-8.22-4.29-11.4,4.12-30.67,17.16-36.1,20.8-8.64,39.67,23.64,65.52,15.61,14-4.37,14.56-15.81,27.51-16.56,14.79-.85,32,13,35.14,28.47C183.8,72.74,172,77.28,173.38,96.77Z"/>
        <path class="cls-1" d="M170.69,96.6c1.06,15.39,9.19,19.21,6.05,28.3-3.58,10.35-18,16.8-30,16.1s-13.75-8.28-28.88-14.84c-24.64-10.68-34.78,3.13-47.94-7.42C57.17,108.54,63.31,92.94,45,75.82c-2.7-2.52-5-4.22-6.39-7.87C34.51,57,42.56,38.56,55.06,33.36c19.93-8.28,38,22.65,62.78,15,13.47-4.19,14-15.16,26.37-15.87,14.16-.81,30.69,12.5,33.67,27.28C180.67,73.58,169.4,77.92,170.69,96.6Z"/>
        <path class="cls-1" d="M168,96.43c1,14.72,8.79,18.37,5.79,27.07-3.42,9.9-17.24,16.07-28.71,15.39S131.92,131,117.45,124.7c-23.56-10.22-33.26,3-45.84-7.1-12.18-9.75-6.3-24.67-23.8-41-2.58-2.41-4.8-4-6.11-7.53C37.76,58.58,45.46,40.92,57.42,36c19-7.92,36.35,21.66,60,14.3,12.88-4,13.35-14.49,25.22-15.17,13.55-.78,29.35,12,32.2,26.09C177.54,74.41,166.76,78.57,168,96.43Z"/>
        <path class="cls-1" d="M165.3,96.26c1,14,8.39,17.53,5.52,25.83-3.26,9.45-16.45,15.34-27.4,14.69s-12.54-7.55-26.35-13.54c-22.49-9.75-31.74,2.86-43.76-6.77-11.62-9.31-6-23.55-22.71-39.17C48.14,75,46,73.44,44.77,70.11c-3.76-10,3.59-26.83,15-31.57C78,31,94.47,59.21,117.07,52.19c12.29-3.82,12.74-13.83,24.06-14.48,12.93-.74,28,11.4,30.73,24.9C174.41,75.25,164.12,79.21,165.3,96.26Z"/>
        <path class="cls-1" d="M162.61,96.09c.92,13.38,8,16.69,5.26,24.6-3.11,9-15.67,14.6-26.09,14s-11.95-7.2-25.1-12.9c-21.42-9.29-30.22,2.72-41.66-6.45C64,106.46,69.29,92.91,53.39,78c-2.34-2.19-4.36-3.67-5.55-6.84-3.58-9.49,3.42-25.54,14.28-30.06,17.32-7.2,33,19.69,54.56,13C128.39,50.49,128.81,41,139.6,40.34c12.31-.71,26.67,10.86,29.26,23.71C171.28,76.08,161.49,79.86,162.61,96.09Z"/>
        <path class="cls-1" d="M159.92,95.92c.87,12.71,7.58,15.86,5,23.36-2.95,8.54-14.88,13.87-24.78,13.29s-11.35-6.84-23.84-12.25C96,111.5,87.59,122.9,76.72,114.2c-10.51-8.43-5.43-21.3-20.54-35.43C54,76.68,52,75.28,50.91,72.27c-3.4-9,3.25-24.26,13.56-28.55,16.45-6.84,31.39,18.7,51.82,12.34,11.12-3.45,11.52-12.5,21.77-13.09,11.69-.67,25.33,10.31,27.79,22.52C168.16,76.92,158.85,80.5,159.92,95.92Z"/>
        <path class="cls-1" d="M157.22,95.75c.84,12,7.19,15,4.73,22.13-2.79,8.09-14.09,13.13-23.47,12.58s-10.74-6.47-22.57-11.6c-19.27-8.35-27.19,2.45-37.48-5.8-10-8-5.15-20.17-19.45-33.55-2.12-2-3.93-3.31-5-6.16-3.22-8.54,3.08-23,12.85-27C82.41,39.84,96.55,64,115.91,58c10.53-3.27,10.91-11.85,20.61-12.4,11.08-.64,24,9.77,26.33,21.32C165,77.75,156.22,81.15,157.22,95.75Z"/>
        <path class="cls-1" d="M154.53,95.58c.79,11.36,6.79,14.18,4.47,20.89-2.64,7.64-13.31,12.4-22.16,11.88s-10.15-6.11-21.32-10.95c-18.19-7.89-25.67,2.31-35.39-5.48-9.39-7.53-4.86-19-18.36-31.68-2-1.86-3.71-3.12-4.72-5.81C54,66.37,60,52.73,69.18,48.9c14.71-6.11,28.06,16.72,46.34,11,9.94-3.09,10.3-11.19,19.46-11.71,10.46-.6,22.66,9.22,24.86,20.13C161.9,78.59,153.58,81.79,154.53,95.58Z"/>
        <path class="cls-1" d="M151.84,95.41c.74,10.69,6.38,13.34,4.2,19.66-2.48,7.18-12.52,11.66-20.85,11.17s-9.55-5.75-20-10.3C98,108.52,91,118.11,81.84,110.79,73,103.7,77.27,92.87,64.56,81c-1.88-1.76-3.49-2.94-4.44-5.47-2.86-7.59,2.74-20.41,11.41-24,13.85-5.75,26.41,15.73,43.61,10.38,9.35-2.9,9.69-10.52,18.31-11,9.84-.56,21.31,8.68,23.38,18.95C158.77,79.42,150.94,82.44,151.84,95.41Z"/>
        <path class="cls-1" d="M149.15,95.24c.69,10,6,12.5,3.93,18.42-2.32,6.74-11.73,10.94-19.53,10.48s-9-5.39-18.8-9.66c-16-7-22.64,2-31.2-4.83-8.29-6.64-4.29-16.79-16.2-27.93-1.76-1.65-3.26-2.76-4.16-5.13-2.68-7.11,2.56-19.13,10.7-22.51,13-5.39,24.74,14.74,40.86,9.73,8.77-2.72,9.08-9.86,17.16-10.33,9.22-.53,20,8.14,21.92,17.76C155.64,80.25,148.31,83.08,149.15,95.24Z"/>
        <path class="cls-1" d="M146.45,95.07c.65,9.35,5.58,11.66,3.68,17.19-2.17,6.28-10.95,10.2-18.23,9.77s-8.35-5-17.54-9c-15-6.49-21.11,1.9-29.11-4.51-7.73-6.19-4-15.67-15.11-26.06-1.64-1.53-3-2.57-3.88-4.78-2.5-6.63,2.39-17.85,10-21,12.1-5,23.09,13.75,38.12,9.08,8.18-2.54,8.48-9.2,16-9.64C139,55.62,149,63.7,150.82,72.68,152.52,81.09,145.67,83.73,146.45,95.07Z"/>
        <path class="cls-1" d="M143.76,94.9c.6,8.67,5.18,10.82,3.41,15.95-2,5.83-10.16,9.47-16.92,9.07s-7.75-4.66-16.27-8.36c-13.89-6-19.6,1.76-27-4.18-7.18-5.75-3.71-14.55-14-24.19-1.52-1.43-2.82-2.38-3.6-4.44C67,72.59,71.55,62.18,78.59,59.26,89.83,54.59,100,72,114,67.68c7.59-2.35,7.86-8.54,14.86-8.94,8-.46,17.3,7,19,15.38C149.39,81.92,143,84.37,143.76,94.9Z"/>
        <path class="cls-1" d="M141.07,94.73c.55,8,4.78,10,3.14,14.71-1.85,5.38-9.37,8.74-15.6,8.37s-7.15-4.3-15-7.71c-12.81-5.56-18.08,1.62-24.93-3.86C82,100.93,85.24,92.82,75.73,83.92c-1.41-1.31-2.61-2.19-3.33-4.09-2.14-5.68,2-15.28,8.55-18,10.36-4.31,19.77,11.77,32.64,7.77,7-2.18,7.26-7.88,13.71-8.25,7.37-.42,16,6.5,17.51,14.19C146.26,82.76,140.4,85,141.07,94.73Z"/>
        <path class="cls-1" d="M138.38,94.56c.5,7.33,4.37,9.15,2.88,13.48-1.7,4.93-8.59,8-14.3,7.66s-6.55-3.94-13.76-7.06c-11.73-5.09-16.56,1.49-22.83-3.54-6.07-4.86-3.14-12.29-11.85-20.44-1.29-1.2-2.39-2-3-3.75-2-5.2,1.88-14,7.83-16.47,9.49-3.95,18.11,10.78,29.9,7.12,6.42-2,6.65-7.22,12.56-7.56,6.75-.39,14.62,6,16,13C143.13,83.59,137.76,85.66,138.38,94.56Z"/>
        <path class="cls-1" d="M135.68,94.39c.46,6.66,4,8.31,2.62,12.24-1.54,4.48-7.8,7.27-13,7s-6-3.58-12.49-6.42c-10.66-4.63-15,1.35-20.74-3.21C86.57,99.55,89.23,92.8,81.31,85.4c-1.17-1.1-2.17-1.83-2.77-3.41-1.78-4.73,1.71-12.72,7.11-15,8.63-3.59,16.45,9.79,27.17,6.46,5.83-1.81,6-6.55,11.41-6.86,6.13-.35,13.28,5.41,14.57,11.8C140,84.43,135.13,86.3,135.68,94.39Z"/>
        <path class="cls-1" d="M93.78,102.83c-5-4-2.56-10-9.68-16.7a7.83,7.83,0,0,1-2.49-3.06C80,78.82,83.15,71.64,88,69.61c7.75-3.22,14.79,8.82,24.42,5.82,5.24-1.63,5.43-5.89,10.26-6.17,5.51-.32,11.94,4.86,13.1,10.61,1.08,5.39-3.3,7.08-2.8,14.35.42,6,3.58,7.47,2.35,11-1.39,4-7,6.53-11.67,6.26s-5.35-3.22-11.24-5.77C102.84,101.56,98.9,106.93,93.78,102.83Z"/>
      </g>
    </g>
  </g>
</svg>
